# xmcd
#
# Track frame offsets:
#	150
#	11470
#	24142
#	37380
#	50415
#	61930
#	73822
#	83930
#	95227
#	107215
#	119060
#	130182
#
# Disc length: 1883 seconds
#
# Revision: 131072
# Processed by: cddbd v1.5.2PL0 Copyright (c) Steve Scherf et al.
# Submitted via: EZCDAudioConverter 8.0.7.1
#
DISCID=ab07590c
DTITLE=Kitty Wells - 20th Century Masters: The Millennium Collection - The Bes
DTITLE=t Of Kitty Wells
DYEAR=2002
DGENRE=Country
TTITLE0=Kitty Wells - It Wasn't God Who Made Honky Tonk Angels (1952 Single Ve
TTITLE0=rsion)
TTITLE1=Kitty Wells - Release Me (1954 Single Version)
TTITLE2=Kitty Wells and Red Foley - One By One
TTITLE3=Kitty Wells - Making Believe (1955 Single Version)
TTITLE4=Kitty Wells and Red Foley - As Long As I Live
TTITLE5=Kitty Wells - Searching (For Someone Like You)
TTITLE6=Kitty Wells - I Can't Stop Loving You
TTITLE7=Kitty Wells - Mommy For A Day
TTITLE8=Kitty Wells - Amigo's Guitar
TTITLE9=Kitty Wells - Heartbreak U.S.A.
TTITLE10=Kitty Wells - Will Your Lawyer Talk To God?
TTITLE11=Kitty Wells - You Don't Hear
EXTD=
EXTT0=
EXTT1=
EXTT2=
EXTT3=
EXTT4=
EXTT5=
EXTT6=
EXTT7=
EXTT8=
EXTT9=
EXTT10=
EXTT11=
PLAYORDER=
